<svg id="Logo" xmlns="http://www.w3.org/2000/svg" width="290" height="62" viewBox="0 0 290 62">
  <rect id="Bound" width="290" height="62" fill="#fff" opacity="0"/>
  <path id="Union_4" data-name="Union 4" d="M33.642,32.7a4.76,4.76,0,0,1,3.421-5.838L60.34,20.723,61.966,26.7a4.431,4.431,0,0,1-3.186,5.435L45.6,35.616,49.134,48.6a4.431,4.431,0,0,1-3.185,5.435l-6.07,1.6ZM16.172,54.032A4.432,4.432,0,0,1,12.987,48.6l3.531-12.981L3.34,32.137A4.431,4.431,0,0,1,.155,26.7l1.627-5.979,23.277,6.144A4.759,4.759,0,0,1,28.479,32.7L22.242,55.634ZM27.639,22.463,10.6,5.677,15.043,1.3a4.552,4.552,0,0,1,6.371,0l9.646,9.5,9.646-9.5a4.553,4.553,0,0,1,6.371,0l4.445,4.377L34.482,22.463a4.892,4.892,0,0,1-6.843,0Z" transform="translate(4.496 3.163)" fill="#009cdc" stroke="rgba(0,0,0,0)" stroke-width="1"/>
  <path id="Union_3" data-name="Union 3" d="M134.038,26.856c0-11.849,4.2-16.113,14.391-16.113a37.676,37.676,0,0,1,8.07.954l-1.781,7.174a50.818,50.818,0,0,0-6.1-.308c-3.945,0-5.287,3.2-5.287,8.294s1.356,8.3,5.1,8.3c3.573,0,7-.293,7-.293l1.068,7.158a37.688,37.688,0,0,1-8.07.955C138.233,42.971,134.038,38.706,134.038,26.856Zm-31.943,3.593V23.264c0-6.356,3.033-12.522,14.2-12.522s14.2,6.166,14.2,12.522v7.184c0,6.356-3.034,12.523-14.2,12.523S102.095,36.8,102.095,30.448Zm9.292-7.438V30.7c0,2.925,1.548,4.577,4.9,4.577s4.9-1.652,4.9-4.577V23.01c0-2.924-1.549-4.577-4.9-4.577S111.387,20.086,111.387,23.01ZM82.8,35.025V18.752H78.542V11.379H82.8V3.763L92.092,3.1v8.281H99l-.516,7.373H92.092v15c0,1.272.775,1.716,1.936,1.716A12.979,12.979,0,0,0,97.9,34.9L99,41.826a22.19,22.19,0,0,1-6.71,1.145C86.285,42.971,82.8,40.745,82.8,35.025ZM47.677,40.569l.75-7.764a45.911,45.911,0,0,0,12.271,2.1c4.968,0,6.19-1.657,6.19-4.179,0-2.473-.593-4.194-7.567-5.941-9.3-2.331-11.6-6.3-11.6-12.813C47.725,5.866,51.236,0,63.045,0A60.046,60.046,0,0,1,75.6,1.379L74.25,9.208a60.422,60.422,0,0,0-11.3-1.128C58.631,8.08,57.4,9.7,57.4,11.9c0,3.137,1.128,3.977,6.969,5.638,11.113,3.158,12.2,6.817,12.2,12.691,0,6.8-2.775,12.741-15.745,12.741A36.986,36.986,0,0,1,47.677,40.569Zm132.067,1.765-8.1-13.194h-.966V42.335H161V.719L170.678,0V23.781h1.061l8.005-12.4h10.661L179.6,26.469l10.8,15.866Zm-146.034,0V22.563c0-2.718-1.441-3.754-4.078-3.754a46.709,46.709,0,0,0-4.957.328v23.2H15.383V11.992a108.953,108.953,0,0,1,15.869-1.249C38.293,10.742,43,14.734,43,21.53v20.8ZM0,42.335V0H9.678V42.335Z" transform="translate(85.975 9.49)" fill="#001e39" stroke="rgba(0,0,0,0)" stroke-width="1"/>
  <g id="Group_81" data-name="Group 81" transform="translate(277.742 20.367)">
    <path id="Path_346" data-name="Path 346" d="M635.673,285.983a3.984,3.984,0,1,1-3.969-3.818A3.866,3.866,0,0,1,635.673,285.983Zm-6.968,0a2.979,2.979,0,0,0,3.023,3.051,2.944,2.944,0,0,0,2.952-3.028,2.989,2.989,0,1,0-5.975-.023Zm2.385,2h-.9v-3.818a7.906,7.906,0,0,1,1.489-.117,2.44,2.44,0,0,1,1.346.28,1.05,1.05,0,0,1,.378.838.985.985,0,0,1-.8.885v.046a1.129,1.129,0,0,1,.708.931,2.892,2.892,0,0,0,.284.954h-.968a3.224,3.224,0,0,1-.307-.931c-.071-.419-.308-.606-.8-.606h-.425Zm.023-2.165h.425c.5,0,.9-.163.9-.559,0-.349-.26-.582-.827-.582a2.139,2.139,0,0,0-.5.047Z" transform="translate(-627.713 -282.165)" fill="#001e39"/>
  </g>
</svg>
